<svg width="24" height="24" viewBox="0 0 24 24" fill="none" xmlns="http://www.w3.org/2000/svg">
<path fill-rule="evenodd" clip-rule="evenodd" d="M21.9996 3C23.1036 3 24 3.8952 24 5.0004V18.9996C24 20.1036 23.1048 21 21.9996 21H2.0004C0.8964 21 0 20.1048 0 18.9996V5.0004C0 3.8964 0.8952 3 2.0004 3H21.9996V3ZM8.6016 13.5936L2.7096 19.416H21.0996L15.2712 13.6536L12 15.918L8.6016 13.5936V13.5936ZM22.368 8.7504L16.6128 12.7296L22.368 18.4128V8.7504ZM1.6332 8.8236V18.2268L7.2564 12.6696L1.6332 8.8236ZM21.9804 4.5852H2.0376C1.9281 4.58006 1.82077 4.61698 1.7376 4.6884C1.70064 4.7215 1.67211 4.76293 1.65437 4.80926C1.63663 4.85559 1.6302 4.90548 1.6356 4.9548V6.8988L12 13.9872L22.3728 6.8292V5.0388C22.374 4.878 22.3368 4.7616 22.2624 4.6884C22.2255 4.65245 22.1814 4.62469 22.133 4.60691C22.0846 4.58913 22.033 4.58173 21.9816 4.5852H21.9804Z" fill="#4a6580"/>
</svg>
